<?xml version="1.0" encoding="UTF-8"?><svg id="Layer_1" xmlns="http://www.w3.org/2000/svg" viewBox="0 0 512 512"><g id="qk54ly.tif"><g><path d="M347,0c6.4,1.63,13.03,2.67,19.17,5,36.24,13.73,54.82,41.27,59.73,78.67,4.31,32.86-7.95,60.75-27.84,85.9-20.5,25.92-45.89,46.83-70.74,68.26-17.28,14.91-34.75,29.61-52.12,44.41-8.92,7.6-15.77,7.66-24.72-.14-32.91-28.66-66.09-57.03-98.53-86.21-18.03-16.22-33.07-35.09-43.51-57.35-19.36-41.3-8.18-92.2,26.88-120.41,11.66-9.39,25.15-14.8,39.92-17.09,1.27-.2,2.5-.68,3.76-1.03,6,0,12,0,18,0,.61,.24,1.21,.61,1.84,.69,23.94,3.12,42.53,15.24,57.19,33.97,2.29,2.93,4.52,5.91,6.74,8.81,.58-.39,.76-.45,.85-.57,.78-1.07,1.53-2.16,2.31-3.24,10.36-14.47,22.88-26.53,39.65-33.14C313.08,3.56,321.17,2.13,329,0c6,0,12,0,18,0Z"/><path d="M198,512c-9.58-.98-19.24-1.53-28.73-3.05-15.72-2.51-31.34-5.65-47.23-8.57,0-2.59,0-4.24,0-5.88,0-58.15,.04-116.3-.09-174.45,0-3.62,1.12-5.59,4.17-7.51,38.29-24.07,87.05-21.39,122.23,7.26,10.3,8.38,21.51,12.65,34.87,12.3,16.32-.43,32.66-.33,48.98,0,12.85,.25,22.35,6.53,27.36,18.37,4.84,11.45,2.81,22.28-5.44,31.62-6.35,7.18-14.68,9.95-24.15,9.94-29.32-.05-58.65-.05-87.97,0-9.47,.02-15.8,5.59-16.24,14.03-.46,8.93,5.67,15.65,14.82,15.9,7.49,.2,14.99,.06,22.49,.06,29.82,0,59.65-.18,89.47,.07,16.93,.14,30.45-5.82,41.49-18.93,21.03-24.97,42.68-49.43,64.04-74.12,8.31-9.61,18.58-14.14,31.13-10.96,11.97,3.03,19.54,10.85,22.11,23.16,.13,.62,.46,1.2,.69,1.79v10c-3.35,7.49-5.52,15.85-10.24,22.34-22.82,31.34-46.32,62.19-69.61,93.18-12.05,16.04-27,28.62-45.95,35.51-9.75,3.54-20.12,5.37-30.2,7.97H198Z"/><path d="M0,313c4.04-8.56,10.84-11.64,20.15-11.11,10.46,.6,21.05-.44,31.42,.7,23.72,2.59,40.1,20.5,40.33,44.34,.39,40.12,.4,80.26-.02,120.38-.24,22.85-15.79,40.14-38.06,43.97-.63,.11-1.22,.47-1.82,.72H11c-3.67-3.67-7.33-7.33-11-11,0-62.67,0-125.33,0-188Z"/></g></g></svg>